HIERARCHY
ROOT Hips
{
  OFFSET -35.2597 29.1586 114.425
  CHANNELS 6 Xposition Yposition Zposition Zrotation Xrotation Yrotation
  JOINT LeftUpLeg
  {
    OFFSET 8.64259 1.95398 -2.38835
    CHANNELS 3 Zrotation Xrotation Yrotation
    JOINT LeftLeg
    {
      OFFSET 43.7702 0 0
      CHANNELS 3 Zrotation Xrotation Yrotation
      JOINT LeftFoot
      {
        OFFSET 40.6238 0 0
        CHANNELS 3 Zrotation Xrotation Yrotation
        JOINT LeftToeBase
        {
          OFFSET 12.7242 0 0
          CHANNELS 3 Zrotation Xrotation Yrotation
          End Site
          {
            OFFSET 0 0 0
          }
        }
      }
    }
  }
  JOINT RightUpLeg
  {
    OFFSET -8.2249 1.95398 -2.59336
    CHANNELS 3 Zrotation Xrotation Yrotation
    JOINT RightLeg
    {
      OFFSET 43.5653 0 0
      CHANNELS 3 Zrotation Xrotation Yrotation
      JOINT RightFoot
      {
        OFFSET 40.6238 0 0
        CHANNELS 3 Zrotation Xrotation Yrotation
        JOINT RightToeBase
        {
          OFFSET 12.7242 0 0
          CHANNELS 3 Zrotation Xrotation Yrotation
          End Site
          {
            OFFSET 0 0 0
          }
        }
      }
    }
  }
  JOINT Spine
  {
    OFFSET 0.165834 0.87714 6.61349
    CHANNELS 3 Zrotation Xrotation Yrotation
    JOINT Spine1
    {
      OFFSET 7.38963 1.71661e-005 0
      CHANNELS 3 Zrotation Xrotation Yrotation
      JOINT Spine2
      {
        OFFSET 11.9445 1.14441e-005 0
        CHANNELS 3 Zrotation Xrotation Yrotation
        JOINT Spine3
        {
          OFFSET 14.7254 4.19617e-005 0
          CHANNELS 3 Zrotation Xrotation Yrotation
          JOINT Spine4
          {
            OFFSET 10.9679 0 0
            CHANNELS 3 Zrotation Xrotation Yrotation
            JOINT RightShoulder
            {
              OFFSET 2.46616 -1.6653 3.69651
              CHANNELS 3 Zrotation Xrotation Yrotation
              JOINT RightArm
              {
                OFFSET 13.0012 0 0
                CHANNELS 3 Zrotation Xrotation Yrotation
                JOINT RightForeArm
                {
                  OFFSET 28.7848 1.62311e-005 0
                  CHANNELS 3 Zrotation Xrotation Yrotation
                  JOINT RightHand
                  {
                    OFFSET 26.5688 1.62095e-005 0
                    CHANNELS 3 Zrotation Xrotation Yrotation
                    End Site
                    {
                      OFFSET 0 0 0
                    }
                  }
                }
              }
            }
            JOINT LeftShoulder
            {
              OFFSET 2.38034 -1.29275 -3.7523
              CHANNELS 3 Zrotation Xrotation Yrotation
              JOINT LeftArm
              {
                OFFSET 16.3182 6.07031e-005 0
                CHANNELS 3 Zrotation Xrotation Yrotation
                JOINT LeftForeArm
                {
                  OFFSET 27.0901 0 0
                  CHANNELS 3 Zrotation Xrotation Yrotation
                  JOINT LeftHand
                  {
                    OFFSET 24.5451 1.51738e-005 0
                    CHANNELS 3 Zrotation Xrotation Yrotation
                    End Site
                    {
                      OFFSET 0 0 0
                    }
                  }
                }
              }
            }
            JOINT Neck
            {
              OFFSET 5.0226 -0.0266342 0
              CHANNELS 3 Zrotation Xrotation Yrotation
              JOINT Head
              {
                OFFSET 6.69364 2.86102e-005 0
                CHANNELS 3 Zrotation Xrotation Yrotation
                End Site
                {
                  OFFSET 0 0 0
                }
              }
            }
          }
        }
      }
    }
  }
}
MOTION
Frames:	18
Frame Time:	0.0416667
290.15 87.6594 305.121 -77.7285 6.54535 -89.4437 -146.081 -0.00311166 117.679 3.61614 25.6158 -9.21675 -4.77236 -56.1268 -13.5303 162.682 29.8797 -32.8818 152.524 39.3496 97.3108 -58.5908 -0.487373 15.3664 89.141 -16.69 -3.24307 17.885 1.09187 9.03052 -5.90727 14.8682 -94.3001 -3.62806 -13.1815 -9.5875 -15.2626 -13.5888 -8.99503 -37.841 -9.71547 -13.0882 -17.8284 -9.71548 -13.0882 70.297 -61.2533 -124.449 7.31763 25.1541 -32.1905 -6.70167 -57.2915 -6.44286 -21.216 2.94218 -21.3277 178.011 -81.7046 -11.4241 -25.2957 -24.3428 -82.0445 69.5102 5.86196 -89.4078 22.82 -5.9906 -30.345 140.71 -14.2098 -16.2387 -63.7178 26.1551 6.46092 
283.266 86.5852 299.666 -74.7382 20.5849 -91.5432 -174.24 3.318 100.77 -45.4776 44.4277 10.902 22.9043 -16.9743 -18.0995 44.5597 -37.8499 81.2331 159.275 36.4066 102.568 -59.7318 2.38772 9.49891 93.4747 -18.9094 2.13928 21.5515 0.337936 7.60866 -4.46689 13.9354 -93.4888 -1.43037 -10.1376 -7.46206 -13.0807 -10.4553 -7.00743 -35.6347 -7.43854 -10.155 -15.6221 -7.43854 -10.1549 81.7859 -53.7196 -111.887 24.1085 13.1382 -46.2345 -11.8172 -75.5457 -10.7022 -23.6751 -8.66718 53.8738 -137.826 -87.4726 35.9786 -22.0399 -21.58 -59.0841 75.6398 7.14598 -89.9055 26.7565 -7.22856 -31.3548 133.403 -4.18434 -13.1948 -55.0503 24.0141 1.37778 
276.942 83.8576 294.49 -69.5577 36.3941 -95.5687 -174.14 13.5637 98.0047 -69.72 24.8512 4.01603 60.7949 0.906787 5.96202 0.133151 -26.0146 5.64457 167.163 34.6427 105.197 -62.306 1.60069 5.59398 101.474 -23.561 6.05546 24.964 -0.562375 6.61745 -2.19283 12.3734 -92.5925 1.95852 -5.37677 -5.17738 -9.71089 -5.59914 -4.93594 -32.207 -3.57606 -6.55016 -12.1944 -3.57605 -6.55016 92.2361 -44.3543 -98.472 28.8933 8.17675 -52.475 176.532 24.0073 176.869 -18.1898 -61.1433 -171.601 -76.1731 -85.9015 98.9365 -20.5803 -20.672 -23.7858 94.7715 2.84484 -93.3815 35.7255 -9.47861 -31.1918 117.11 9.6711 -4.93638 -45.7994 18.4154 -5.78291 
269.392 83.1674 287.789 -65.1571 44.0305 -101.379 -172.332 33.709 92.9655 -89.1407 6.57901 3.28626 68.0352 6.05989 8.69866 24.1469 4.36007 -12.1729 172.103 27.3675 102.225 -58.2799 -3.34187 2.99345 104.29 -27.773 4.76641 28.367 -2.12626 7.93602 -0.456779 10.3197 -91.8378 6.18884 -1.68733 -3.55018 -5.4855 -1.84186 -3.47261 -27.9842 -0.543219 -3.89262 -7.97159 -0.543226 -3.89263 94.751 -30.4419 -97.1758 31.4416 -4.9212 -32.6753 4.90208 6.91126 -47.8208 -89.398 -20.0724 13.2029 -72.4846 -69.0579 103.859 -18.8794 -19.0132 24.1646 95.2397 -5.35963 -89.6856 31.4259 -10.1693 -37.1434 83.341 15.3864 7.33009 -31.1211 8.9518 -7.35685 
261.479 83.4575 279.519 -61.2722 45.8651 -108.535 -174.531 53.8556 90.4039 -91.8744 -0.671953 3.60736 79.0852 12.7905 6.3652 25.2774 1.89515 -7.10839 173.947 17.8676 97.4469 -49.9713 -6.15841 1.31458 100.518 -28.8301 0.662795 36.0452 -4.152 5.23911 1.22001 8.29466 -90.7184 10.2984 2.10211 -1.60821 -1.37199 2.02928 -1.69917 -23.9177 2.48819 -0.901894 -3.90502 2.48821 -0.901874 92.1355 -22.2704 -105.315 28.1899 5.27112 12.4052 -3.28809 -0.314693 -93.4504 -22.8784 -5.43742 21.9194 -82.3634 -43.5673 89.644 -21.0603 -13.7346 74.0591 93.3767 -19.2815 -91.4711 41.4518 -13.7749 -37.5956 40.7433 2.94345 9.12453 -7.77844 -1.71367 -1.02089 
251.221 85.5699 267.898 -62.5194 36.9099 -111.059 177.229 66.5656 88.8763 -77.124 3.93661 3.04747 84.3349 16.161 2.49565 26.9991 -0.158639 -1.47065 173.451 6.32343 93.6265 -35.5548 -8.94986 1.35713 79.2166 -15.2596 -6.61825 47.4924 -8.60924 9.7718 1.80324 7.52547 -89.9692 11.8614 3.60316 -0.263758 0.195378 3.58805 -0.422269 -22.3796 3.51582 0.832674 -2.36692 3.51583 0.832675 94.21 -13.7687 -103.961 26.139 3.16657 42.1412 12.7893 -6.886 -114.167 -25.0274 -5.34136 19.2279 -83.9263 -27.8824 84.6818 -21.8716 -11.3267 89.5432 94.1985 -27.0191 -90.811 44.4264 -16.9459 -42.2348 27.0711 -8.00092 5.39121 0.303073 -9.54539 2.63405 
236.421 89.7563 254.209 -69.6375 37.2437 -115.884 -170.36 57.6144 73.4357 -53.69 4.13267 -3.09346 85.6301 15.2352 -2.29327 23.6105 -1.69415 -1.6581 172.088 -11.4525 84.6961 -23.1129 -19.4697 -4.23193 58.0716 0.759477 -5.37752 28.5445 -2.73346 10.5386 2.68729 8.15868 -88.5644 10.4888 6.0106 2.28897 -1.16976 6.1055 2.02139 -23.7729 5.04467 3.9924 -3.76024 5.04468 3.9924 95.8195 -10.8958 -100.81 26.75 -14.7296 65.3011 28.34 -21.3586 -122.481 -35.0893 -3.55713 6.56946 -84.29 -24.1837 83.18 -20.8465 -12.8876 84.2407 95.1807 -29.684 -90.2152 42.1835 -17.9109 -46.3078 25.0216 -14.9455 1.70565 -1.13837 -14.8791 2.19832 
224.062 90.5528 241.395 -70.4899 34.4508 -113.757 -166.572 53.3695 73.2135 -43.027 12.2092 -8.04944 79.9685 12.7353 -0.900014 23.7735 -4.23556 3.11202 174.651 -9.36674 89.4095 -38.4934 -19.8891 -3.24798 60.442 -0.193276 3.29032 15.8171 1.09932 10.7466 2.69532 8.04048 -88.5211 10.7339 6.049 2.38576 -0.924544 6.14811 2.11639 -23.5276 5.05232 4.09618 -3.51496 5.05232 4.09618 93.3636 -19.1133 -103.731 32.0699 -15.7268 67.4383 20.4487 -13.0323 -118.649 -30.2406 -2.21243 3.10849 -85.0688 -35.2578 83.7353 -21.4061 -12.0278 65.2178 96.4897 -25.3596 -89.9715 42.1593 -16.2269 -42.6092 23.8447 -16.7834 -0.971499 -0.53174 -15.739 0.903949 
211.503 90.283 228.709 -77.7053 30.43 -108.937 -169.053 40.4651 75.9717 -43.9645 8.65922 -7.78319 69.5323 5.62175 3.77549 29.8751 4.6446 -9.08906 169.831 -0.780308 90.7258 -65.9783 -10.0058 0.80371 61.1396 -1.01022 -1.29101 14.5311 0.0953484 14.1378 1.67931 8.34635 -88.5996 10.1351 3.98465 2.44537 -1.53169 4.08835 2.26748 -24.0804 3.0659 3.52984 -4.06775 3.06588 3.52985 90.4574 -29.3987 -106.076 42.3136 -9.19339 43.5408 0.152628 0.114706 -86.0418 -28.3 -3.60316 9.35161 -87.5001 -50.1051 82.4928 -22.7011 -3.11005 41.4065 96.3843 -19.4036 -90.5221 28.8311 -9.88177 -38.4799 22.5755 -15.2632 -8.18724 -0.524999 -11.9532 4.14267 
200.601 88.6665 216.866 -77.921 29.8187 -111.181 -167.534 30.1257 76.8679 -49.5235 7.44535 -6.62578 84.3981 16.1329 -1.07378 33.1934 3.02091 -2.05208 169.844 21.8461 91.1468 -94.4461 2.1504 -2.33472 69.5267 -7.57347 -3.50942 16.0493 0.363747 12.3699 0.566197 8.11903 -88.2993 10.6007 1.90937 3.20202 -1.07281 2.04837 3.11498 -23.5779 0.859626 3.62726 -3.56528 0.85961 3.62725 90.2622 -33.0017 -105.116 49.4483 -0.0208242 39.8059 -18.9295 -11.215 -58.0102 -15.6733 -0.794803 -3.28668 -89.0197 -54.0892 80.9484 -15.7035 14.8192 11.782 94.934 -24.6059 -90.4796 -9.7371 2.64755 -35.6373 21.0705 -10.9621 -8.44973 -1.7401 -7.86506 0.962562 
188.469 87.8333 205.68 -82.1323 27.9245 -105.442 -171.233 14.2444 86.687 -43.9518 7.84798 -3.10425 91.6242 21.8186 -3.57534 41.7276 5.31548 2.2967 176.303 40.6589 88.7092 -104.453 -3.89186 -3.77399 73.3561 -10.5591 -7.17215 16.6603 0.453836 11.6198 -1.20694 8.25439 -88.8516 10.3786 -1.87805 2.44845 -1.29373 -1.76853 2.52866 -23.827 -2.52698 1.77108 -3.8143 -2.52702 1.77106 92.4656 -28.6783 -102.304 46.9903 9.71147 36.981 -21.732 -37.7077 -31.2973 -32.8973 13.5698 -35.4061 -87.0338 -40.7307 81.5365 -14.1758 8.10125 -21.4796 93.5098 -9.9014 -93.1154 42.3228 -6.92545 -20.9424 19.9964 -3.82427 -7.15059 -0.358669 -1.43873 0.785415 
175.143 89.9264 192.646 -80.7579 33.6824 -99.531 -168.646 -6.00128 93.2562 -23.8365 10.9431 -1.33935 73.9935 13.4235 2.30268 60.3223 13.2821 4.72482 -176.265 53.5247 89.1685 -89.0129 1.79323 -4.45748 78.9105 -12.2557 -6.56414 16.4874 1.61749 8.98202 -2.20616 7.87718 -89.7831 11.1396 -4.2897 0.860781 -0.524684 -4.24765 1.04906 -23.1167 -4.3498 -0.47077 -3.10401 -4.34977 -0.470755 92.6748 -24.6014 -103.212 33.4231 16.7311 35.6756 -3.11203 -48.019 -2.15496 -35.6037 16.421 -55.6078 -83.4826 -24.3086 84.8061 -17.9709 -2.72053 -19.4337 75.1921 -11.586 -95.9829 55.4378 -6.16822 -15.1742 23.2472 4.88359 -6.1303 -7.20252 6.59103 3.81442 
159.921 93.7825 177.734 -78.4224 39.5716 -94.9303 -171.833 -13.9272 97.3542 -19.5753 12.1509 4.28057 50.142 -5.31537 2.61963 34.1264 4.77789 -5.40804 -174.625 53.3055 91.8991 -58.7007 -6.61325 -4.40208 75.0895 -9.63657 -5.61716 18.8506 1.83157 6.26189 -2.43391 7.87172 -91.1307 11.095 -5.36925 -1.73076 -0.565635 -5.44022 -1.49217 -23.1612 -4.60068 -3.26688 -3.14851 -4.60067 -3.26687 89.7275 -24.1039 -109.825 20.7454 18.0214 56.1137 -24.373 -41.2847 -32.765 -26.9864 12.0976 -53.8674 -82.0017 -22.8548 87.7707 -18.3719 -6.04938 -9.66194 76.7857 -17.3206 -96.2408 57.3287 -7.68404 -17.5641 33.2952 12.958 0.966435 -15.682 11.6295 2.63251 
146 93.8718 162.805 -77.2784 45.8497 -94.8705 -173.227 -11.5839 94.0735 -40.8229 21.5531 3.90719 56.2853 -1.66442 5.55232 20.2103 0.81167 -9.14942 -174.139 48.3492 93.7847 -40.9202 -17.3443 -4.58264 76.0854 -11.1995 -3.87118 19.1772 1.44732 6.89073 -1.72793 7.7848 -91.5934 11.2508 -4.18001 -2.75654 -0.416024 -4.29722 -2.56977 -22.962 -3.15894 -3.88515 -2.94939 -3.15894 -3.88515 88.399 -26.0441 -111.812 25.4275 17.6839 47.7239 -21.4111 -35.2191 -32.075 -30.5306 12.3669 -49.3697 -84.1118 -33.1477 85.255 -18.9688 1.84335 -3.89056 79.5086 -12.3049 -94.7194 53.7466 -10.6354 -24.0042 33.3641 14.7268 4.56479 -14.2366 11.7348 3.28074 
133.547 92.7192 147.871 -81.3776 47.325 -93.3344 -169.899 0.0587516 90.0032 -68.0724 9.70188 1.61899 55.8312 -2.54568 5.85847 29.704 5.09388 -10.2182 -178.662 39.8639 95.0245 -41.1271 -13.7179 -2.35413 71.5784 -7.57323 -3.80813 19.1979 2.41101 4.38355 -1.21597 7.96377 -91.4962 10.9044 -3.11289 -2.68342 -0.76524 -3.22794 -2.54382 -23.2954 -2.16298 -3.49441 -3.28277 -2.16299 -3.49441 88.388 -33.9121 -108.309 28.7668 14.4881 26.6808 -20.9469 -30.1895 -34.9094 -36.6667 13.527 -45.0599 -87.1981 -48.3951 82.5854 -23.0611 4.16768 9.09966 88.593 -4.52712 -92.1071 49.3257 -10.8182 -26.296 31.6467 13.3836 7.69819 -11.9723 9.41426 2.40886 
122.321 91.3543 133.885 -83.3322 49.8765 -88.0614 -167.361 21.2016 96.2463 -90.6296 -0.598084 2.95983 62.6473 2.51451 9.52109 26.2711 3.22011 -9.00533 178.126 32.2052 100.431 -50.8537 -15.1052 -0.389106 74.9694 -10.9971 -5.11645 21.751 -0.0747888 8.61175 -0.103001 8.02258 -91.8864 10.7939 -1.07526 -3.65051 -0.881637 -1.23476 -3.59976 -23.3748 0.0706579 -3.8047 -3.36214 0.0706543 -3.8047 89.7882 -34.0186 -105.699 35.179 6.80777 8.52366 -21.201 -18.4621 -48.2393 -42.5089 13.6613 -39.9438 -86.3171 -55.3309 85.0321 -23.1576 -6.09387 36.4725 94.7273 -10.2102 -91.8002 44.6207 -12.1924 -31.771 26.5267 10.4014 10.5347 -7.717 6.00125 1.63799 
110.501 90.1489 119.549 -84.8221 49.5768 -88.6645 -171.259 39.8208 90.903 -93.7714 1.44579 3.49024 71.4423 8.42181 9.37958 26.1107 2.61215 -7.86939 177.495 16.907 98.6948 -51.0932 -12.6347 -0.806756 86.893 -20.109 -3.78054 27.057 -1.74649 8.08723 0.945873 7.86557 -91.5679 11.1489 1.15442 -3.23333 -0.525614 1.01109 -3.28096 -23.0402 2.07247 -2.7375 -3.02756 2.07247 -2.73749 88.6918 -31.5582 -108.703 30.1975 7.33899 -1.52324 -19.9029 -9.44877 -64.1739 -45.6959 13.7956 -37.6535 -83.8197 -53.0084 88.3428 -17.2566 -21.7013 66.0416 100.964 -18.1916 -89.2675 53.1665 -16.1176 -34.3134 21.9564 5.02092 11.5116 -7.43756 1.06305 -0.419393 
96.7264 91.9012 103.613 -86.2088 47.4368 -92.8067 -173.916 46.3617 83.9014 -72.6308 0.75013 1.60738 75.5729 10.559 7.48326 26.1182 1.4814 -5.55426 174.9 -0.20451 89.6426 -39.5259 -19.8438 -2.05372 77.0372 -13.8451 -7.4779 36.5792 -4.76807 7.29506 2.31856 7.69915 -90.5144 11.5113 4.3729 -1.46426 -0.153355 4.30418 -1.65558 -22.7478 4.61043 -0.079651 -2.73515 4.61045 -0.079647 92.4333 -23.1148 -104.377 27.892 9.27725 7.34467 -15.4196 -1.49483 -84.5788 -50.5931 15.6509 -37.8768 -82.9331 -42.6044 88.5961 -9.94382 -34.2664 79.9416 107.473 -23.2233 -85.8762 49.6281 -21.1427 -46.1489 19.9743 -4.81779 5.37203 -9.34142 -6.26945 -0.734321 
